<svg class="svg-icon" style="width: 1em; height: 1em;vertical-align: middle;fill: currentColor;overflow: hidden;" viewBox="0 0 1024 1024" version="1.1" xmlns="http://www.w3.org/2000/svg"><path d="M851.1 572.9c-11.3 0-20.4-9.1-20.4-20.4v-129c0-11.3 9.1-20.4 20.4-20.4 11.3 0 20.4 9.1 20.4 20.4v129c0 11.3-9.1 20.4-20.4 20.4z" fill="#808080" /><path d="M851.1 680.5c-36.9 0-67-30.1-67-67s30.1-67 67-67c37 0 67 30.1 67 67 0 37-30 67-67 67z m0-93.2c-14.5 0-26.3 11.8-26.3 26.3s11.8 26.3 26.3 26.3 26.3-11.8 26.3-26.3-11.8-26.3-26.3-26.3zM493.5 800.5c-126.5 0-225.6-66-225.6-150.1 0-11.3 9.1-20.4 20.4-20.4s20.4 9.1 20.4 20.4c0 59.3 84.7 109.4 184.9 109.4s184.8-50.1 184.8-109.4c0-11.3 9.1-20.4 20.4-20.4 11.3 0 20.4 9.1 20.4 20.4-0.1 84.2-99.2 150.1-225.7 150.1z" fill="#808080" /><path d="M288.3 683.5c-11.3 0-20.4-9.1-20.4-20.4V470.5c0-11.3 9.1-20.4 20.4-20.4s20.4 9.1 20.4 20.4v192.6c-0.1 11.3-9.2 20.4-20.4 20.4zM698.7 683.5c-11.3 0-20.4-9.1-20.4-20.4V470.5c0-11.3 9.1-20.4 20.4-20.4 11.3 0 20.4 9.1 20.4 20.4v192.6c0 11.3-9.1 20.4-20.4 20.4z" fill="#808080" /><path d="M179.8 455.6l327.9-124.4c2.7-1 5.6-1 8.3 0l340.4 124.6c10.2 3.7 10.4 18.1 0.3 22.1l-334 131.8c-2.8 1.1-5.9 1.1-8.7 0l-334.4-132c-10-4-9.9-18.3 0.2-22.1z" fill="#33DEB4" opacity=".4" /><path d="M493.5 564.5c-2.5 0-5.1-0.5-7.5-1.4l-367.2-145c-7.8-3.1-12.9-10.7-12.9-19 0.1-8.4 5.3-15.9 13.1-18.9l360.6-136.8c4.6-1.7 9.6-1.8 14.2-0.1L867.7 380c7.9 2.9 13.3 10.4 13.4 18.9 0.1 8.4-5 16.1-12.9 19.2L501 563c-2.4 1-5 1.5-7.5 1.5z m-310.8-165l310.8 122.7 309.9-122.4L487 284.1 182.7 399.5z" fill="#33DEB4" /></svg>