<?xml version="1.0" encoding="UTF-8" standalone="no"?>
<!-- Created with Inkscape (http://www.inkscape.org/) -->

<svg
   width="100"
   height="100"
   viewBox="0 0 100 100"
   version="1.1"
   id="svg1"
   xml:space="preserve"
   inkscape:version="1.3 (0e150ed6c4, 2023-07-21)"
   sodipodi:docname="icon.svg"
   xmlns:inkscape="http://www.inkscape.org/namespaces/inkscape"
   xmlns:sodipodi="http://sodipodi.sourceforge.net/DTD/sodipodi-0.dtd"
   xmlns="http://www.w3.org/2000/svg"
   xmlns:svg="http://www.w3.org/2000/svg"><sodipodi:namedview
     id="namedview1"
     pagecolor="#ffffff"
     bordercolor="#000000"
     borderopacity="0.25"
     inkscape:showpageshadow="2"
     inkscape:pageopacity="0.0"
     inkscape:pagecheckerboard="0"
     inkscape:deskcolor="#d1d1d1"
     inkscape:document-units="px"
     inkscape:zoom="5.6568543"
     inkscape:cx="42.338018"
     inkscape:cy="56.303377"
     inkscape:window-width="1920"
     inkscape:window-height="991"
     inkscape:window-x="-9"
     inkscape:window-y="-9"
     inkscape:window-maximized="1"
     inkscape:current-layer="layer1" /><defs
     id="defs1" /><g
     inkscape:label="Слой 1"
     inkscape:groupmode="layer"
     id="layer1"><path
       style="fill:#000000;stroke-width:0.173506"
       d="m 60.013695,97.995928 c -4.36166,-0.649791 -7.881022,-1.668221 -11.104368,-3.213371 -1.972211,-0.945397 -8.443944,-5.025876 -8.443944,-5.323967 0,-0.166784 5.258139,-7.95042 5.67808,-8.405274 0.243668,-0.263924 0.704419,-0.05758 2.776905,1.243338 11.848393,7.43762 23.510244,7.655144 26.841378,0.500667 C 78.189549,77.582984 74.705401,74.96315 62.32711,72.695417 54.368875,71.237455 46.480244,68.340169 46.480244,66.87528 c 0,-0.179523 5.223329,-7.731608 5.78713,-8.367265 0.09282,-0.104672 1.873743,0.395692 3.957558,1.111908 3.767703,1.294976 9.297274,2.736597 13.273751,3.460611 12.660538,2.305179 18.310936,8.090955 17.861259,18.289204 C 86.836543,93.23997 75.274615,100.26948 60.013695,97.995928 Z M 30.796469,84.724186 c 0.924008,-1.623699 6.350063,-11.477165 8.790157,-15.962525 5.532096,-10.169058 7.124965,-13.219179 7.124965,-13.643353 0,-0.157744 -2.930619,-0.237117 -8.755665,-0.237117 h -8.755674 l -2.394702,4.973838 -2.394704,4.973828 h -6.537635 -6.537636 l 0.886393,-1.677224 c 0.487524,-0.922466 3.515258,-6.830342 6.728311,-13.128599 3.213054,-6.298258 6.491524,-12.700621 7.285487,-14.227478 0.793962,-1.526845 3.039998,-5.899191 4.991186,-9.716316 1.951188,-3.817125 4.780058,-9.33461 6.286386,-12.261081 1.506319,-2.92646 3.487794,-6.8043168 4.403258,-8.6174477 0,0 1.363899,-3.0045776 1.664492,-3.2966142 0.300593,-0.2920366 0.379738,-0.3586241 0.616087,-0.3579472 0.236349,6.769e-4 0.363731,0.1229959 0.608042,0.3579472 0.244311,0.2349513 5.613018,10.9308649 5.613018,10.9308649 3.087168,6.011972 7.211732,14.020741 9.165706,17.79725 L 63.136618,37.4986 46.807472,61.51624 c -8.98103,13.209701 -16.39086,24.069689 -16.466287,24.13331 -0.07543,0.06367 0.129439,-0.352794 0.455284,-0.925364 z M 53.123687,44.181677 c -0.522401,-1.314204 -8.829252,-18.680596 -8.935162,-18.679952 -0.111138,7.02e-4 -8.737923,17.954788 -9.005428,18.742151 -0.04954,0.145854 3.163183,0.226974 8.98921,0.226974 7.16014,0 9.042165,-0.06076 8.95138,-0.289173 z m 22.274188,6.161938 c -3.548639,-2.4128 -9.126595,-4.63155 -12.249096,-4.872339 -1.024488,-0.07899 -1.862712,-0.172438 -1.862712,-0.207642 0,-0.07582 27.407761,-42.1070475 27.896811,-42.7811805 0.484387,-0.6677023 -0.36439,1.0533629 -2.795202,5.6678536 C 78.661058,22.817998 72.46561,35.2549 72.333535,36.362957 l -0.0588,0.49301 2.099416,0.871783 c 2.312527,0.960278 2.822263,1.242263 6.286929,3.477839 1.30431,0.841617 2.345345,1.640524 2.313409,1.775356 -0.07871,0.332324 -5.811446,8.413462 -5.957258,8.397637 -0.06362,-0.0065 -0.792342,-0.472642 -1.619386,-1.034967 z"
       id="path1"
       sodipodi:nodetypes="ssssssssssssssssscccccsssssszzzsscsssscssssssssscssssss" /></g></svg>
